<svg xmlns="http://www.w3.org/2000/svg" viewBox="0 0 120 120" width="120" height="120">
      <defs>
        <linearGradient id="bg5" x1="0%" y1="0%" x2="100%" y2="100%">
          <stop offset="0%" stop-color="#f59e0b"/><stop offset="100%" stop-color="#d97706"/>
        </linearGradient>
      </defs>
      <circle cx="60" cy="60" r="58" fill="url(#bg5)"/>
      <circle cx="60" cy="56" r="25" fill="#fde68a"/>
      <!-- Crown -->
      <path d="M42 36 L46 22 L60 30 L74 22 L78 36 Z" fill="#fbbf24" stroke="#d97706" stroke-width="1.5"/>
      <circle cx="60" cy="30" r="2.5" fill="#ef4444"/>
      <circle cx="46" cy="22" r="2" fill="#3b82f6"/>
      <circle cx="74" cy="22" r="2" fill="#3b82f6"/>
      <!-- Hair -->
      <path d="M38 48 C38 36 82 36 82 48" stroke="#78350f" stroke-width="5" fill="none"/>
      <!-- Eyes with sparkle -->
      <circle cx="51" cy="55" r="3.5" fill="#78350f"/>
      <circle cx="69" cy="55" r="3.5" fill="#78350f"/>
      <circle cx="52" cy="54" r="1.3" fill="#ffffff"/>
      <circle cx="70" cy="54" r="1.3" fill="#ffffff"/>
      <!-- Smile -->
      <path d="M54 64 Q60 70 66 64" stroke="#b45309" stroke-width="2.5" fill="none" stroke-linecap="round"/>
      <!-- Royal Cape -->
      <path d="M30 108 C32 84 88 84 90 108 Z" fill="#7c2d12"/>
      <path d="M50 84 L60 96 L70 84" fill="#fbbf24"/>
    </svg>