<svg xmlns="http://www.w3.org/2000/svg" viewBox="0 0 120 120" width="120" height="120">
      <defs>
        <linearGradient id="bg1" x1="0%" y1="0%" x2="100%" y2="100%">
          <stop offset="0%" stop-color="#6366f1"/><stop offset="100%" stop-color="#a855f7"/>
        </linearGradient>
      </defs>
      <circle cx="60" cy="60" r="58" fill="url(#bg1)"/>
      <circle cx="60" cy="54" r="26" fill="#fcd34d"/>
      <!-- Hair -->
      <path d="M36 50 C36 28 84 28 84 50 C80 34 40 34 36 50 Z" fill="#312e81"/>
      <!-- Eyes -->
      <circle cx="51" cy="52" r="3.5" fill="#1e1b4b"/>
      <circle cx="69" cy="52" r="3.5" fill="#1e1b4b"/>
      <circle cx="52" cy="51" r="1.2" fill="#ffffff"/>
      <circle cx="70" cy="51" r="1.2" fill="#ffffff"/>
      <!-- Smile -->
      <path d="M54 62 Q60 68 66 62" stroke="#b45309" stroke-width="2.5" fill="none" stroke-linecap="round"/>
      <!-- Headphones -->
      <path d="M30 52 C30 30 90 30 90 52" stroke="#06b6d4" stroke-width="4.5" fill="none" stroke-linecap="round"/>
      <rect x="26" y="46" width="9" height="18" rx="4" fill="#0891b2"/>
      <rect x="85" y="46" width="9" height="18" rx="4" fill="#0891b2"/>
      <!-- Clothes / Shoulders -->
      <path d="M30 108 C32 84 88 84 90 108 Z" fill="#4338ca"/>
    </svg>